<svg width="16" height="19" viewBox="0 0 16 19" fill="none" xmlns="http://www.w3.org/2000/svg">
<path d="M13.8333 5.00016H12.1667C12.1667 2.70016 10.3 0.833496 8 0.833496C5.7 0.833496 3.83333 2.70016 3.83333 5.00016H2.16667C1.25 5.00016 0.5 5.75016 0.5 6.66683V16.6668C0.5 17.5835 1.25 18.3335 2.16667 18.3335H13.8333C14.75 18.3335 15.5 17.5835 15.5 16.6668V6.66683C15.5 5.75016 14.75 5.00016 13.8333 5.00016ZM8 2.50016C9.38333 2.50016 10.5 3.61683 10.5 5.00016H5.5C5.5 3.61683 6.61667 2.50016 8 2.50016ZM13.8333 16.6668H2.16667V6.66683H13.8333V16.6668ZM8 10.0002C6.61667 10.0002 5.5 8.8835 5.5 7.50016H3.83333C3.83333 9.80016 5.7 11.6668 8 11.6668C10.3 11.6668 12.1667 9.80016 12.1667 7.50016H10.5C10.5 8.8835 9.38333 10.0002 8 10.0002Z" fill="black"/>
</svg>
