<svg width="18" height="18" viewBox="0 0 18 18" fill="none" xmlns="http://www.w3.org/2000/svg">
<path d="M8.16602 4.83317H9.83268V6.49984H8.16602V4.83317ZM8.16602 8.1665H9.83268V13.1665H8.16602V8.1665ZM8.99935 0.666504C4.39935 0.666504 0.666016 4.39984 0.666016 8.99984C0.666016 13.5998 4.39935 17.3332 8.99935 17.3332C13.5993 17.3332 17.3327 13.5998 17.3327 8.99984C17.3327 4.39984 13.5993 0.666504 8.99935 0.666504ZM8.99935 15.6665C5.32435 15.6665 2.33268 12.6748 2.33268 8.99984C2.33268 5.32484 5.32435 2.33317 8.99935 2.33317C12.6743 2.33317 15.666 5.32484 15.666 8.99984C15.666 12.6748 12.6743 15.6665 8.99935 15.6665Z" fill="black" fill-opacity="0.87"/>
</svg>
