<svg width="20" height="13" viewBox="0 0 20 13" fill="none" xmlns="http://www.w3.org/2000/svg">
<path d="M5.41732 3.25H0.833984V1.41667H5.41732V3.25ZM5.41732 6H0.833984V7.83333H5.41732V6ZM17.8748 12.4167L14.364 8.90583C13.6307 9.3825 12.769 9.66667 11.834 9.66667C9.30398 9.66667 7.25065 7.61333 7.25065 5.08333C7.25065 2.55333 9.30398 0.5 11.834 0.5C14.364 0.5 16.4173 2.55333 16.4173 5.08333C16.4173 6.01833 16.1332 6.88 15.6565 7.60417L19.1673 11.1242L17.8748 12.4167ZM14.584 5.08333C14.584 3.57083 13.3465 2.33333 11.834 2.33333C10.3215 2.33333 9.08398 3.57083 9.08398 5.08333C9.08398 6.59583 10.3215 7.83333 11.834 7.83333C13.3465 7.83333 14.584 6.59583 14.584 5.08333ZM0.833984 12.4167H10.0007V10.5833H0.833984V12.4167Z" fill="black"/>
</svg>
