<svg width="18" height="18" viewBox="0 0 18 18" fill="none" xmlns="http://www.w3.org/2000/svg">
<path d="M15.666 4.83317H11.4993V2.33317C11.4993 1.4165 10.7493 0.666504 9.83268 0.666504H8.16602C7.24935 0.666504 6.49935 1.4165 6.49935 2.33317V4.83317H2.33268C1.41602 4.83317 0.666016 5.58317 0.666016 6.49984V15.6665C0.666016 16.5832 1.41602 17.3332 2.33268 17.3332H15.666C16.5827 17.3332 17.3327 16.5832 17.3327 15.6665V6.49984C17.3327 5.58317 16.5827 4.83317 15.666 4.83317ZM8.16602 4.83317V2.33317H9.83268V4.83317V6.49984H8.16602V4.83317ZM15.666 15.6665H2.33268V6.49984H6.49935C6.49935 7.4165 7.24935 8.1665 8.16602 8.1665H9.83268C10.7493 8.1665 11.4993 7.4165 11.4993 6.49984H15.666V15.6665Z" fill="black" fill-opacity="0.38"/>
</svg>
