<svg width="18" height="14" viewBox="0 0 18 14" fill="none" xmlns="http://www.w3.org/2000/svg">
<path d="M17.3327 5.3335V2.00016C17.3327 1.07516 16.5827 0.333496 15.666 0.333496H2.33268C1.41602 0.333496 0.674349 1.07516 0.674349 2.00016V5.3335C1.59102 5.3335 2.33268 6.0835 2.33268 7.00016C2.33268 7.91683 1.59102 8.66683 0.666016 8.66683V12.0002C0.666016 12.9168 1.41602 13.6668 2.33268 13.6668H15.666C16.5827 13.6668 17.3327 12.9168 17.3327 12.0002V8.66683C16.416 8.66683 15.666 7.91683 15.666 7.00016C15.666 6.0835 16.416 5.3335 17.3327 5.3335ZM15.666 4.11683C14.6743 4.69183 13.9993 5.77516 13.9993 7.00016C13.9993 8.22516 14.6743 9.3085 15.666 9.8835V12.0002H2.33268V9.8835C3.32435 9.3085 3.99935 8.22516 3.99935 7.00016C3.99935 5.76683 3.33268 4.69183 2.34102 4.11683L2.33268 2.00016H15.666V4.11683ZM8.16602 9.50016H9.83268V11.1668H8.16602V9.50016ZM8.16602 6.16683H9.83268V7.8335H8.16602V6.16683ZM8.16602 2.8335H9.83268V4.50016H8.16602V2.8335Z" fill="black" fill-opacity="0.38"/>
</svg>
