<svg width="22" height="24" viewBox="0 0 22 24" fill="none" xmlns="http://www.w3.org/2000/svg">
<path d="M17.721 12.6953C17.7096 10.8038 18.5937 9.37817 20.3791 8.32699C19.3805 6.94021 17.8698 6.17748 15.8784 6.03048C13.9928 5.88625 11.9299 7.09553 11.1745 7.09553C10.3763 7.09553 8.55079 6.0804 7.11445 6.0804C4.15021 6.12478 1 8.37136 1 12.9422C1 14.2929 1.25465 15.688 1.76395 17.1247C2.44492 19.0163 4.89986 23.6509 7.46066 23.576C8.79971 23.5455 9.74678 22.6552 11.4893 22.6552C13.1803 22.6552 14.0558 23.576 15.5494 23.576C18.133 23.54 20.3534 19.3269 21 17.4298C17.535 15.8461 17.721 12.7924 17.721 12.6953V12.6953ZM14.7139 4.23599C16.1645 2.5663 16.0329 1.04639 15.99 0.5C14.7082 0.572113 13.226 1.34594 12.382 2.29727C11.4521 3.31794 10.9056 4.57991 11.0229 6.00274C12.4077 6.10537 13.6724 5.41475 14.7139 4.23599V4.23599Z" fill="#555555"/>
</svg>
