<svg width="30" height="30" viewBox="0 0 30 30" fill="none" xmlns="http://www.w3.org/2000/svg">
<path d="M15 30C23.2843 30 30 23.2843 30 15C30 6.71573 23.2843 0 15 0C6.71573 0 0 6.71573 0 15C0 23.2843 6.71573 30 15 30Z" fill="#007466"/>
<path fill-rule="evenodd" clip-rule="evenodd" d="M20.7549 8.13554C20.9944 8.06602 21.2083 8.10513 21.3964 8.25285C21.5846 8.40058 21.6787 8.59609 21.6787 8.8394V18.9802C21.6787 19.1887 21.6103 19.3821 21.4734 19.5602C21.3366 19.7383 21.1698 19.8535 20.973 19.9056L15.5456 21.4046C15.4601 21.4306 15.3724 21.448 15.2826 21.4567C15.1928 21.4654 15.1137 21.4697 15.0452 21.4697C14.9511 21.4697 14.8592 21.4632 14.7694 21.4502C14.6796 21.4372 14.6004 21.422 14.532 21.4046L9.24573 19.9186C9.04899 19.8578 8.88219 19.7383 8.74533 19.5602C8.60847 19.3821 8.54004 19.1887 8.54004 18.9802V8.8394C8.54004 8.59609 8.63413 8.40058 8.82232 8.25285C9.0105 8.10513 9.22434 8.06602 9.46385 8.13554L14.7501 9.62146C14.8186 9.63884 14.9148 9.64753 15.0388 9.64753C15.1628 9.64753 15.2591 9.63884 15.3275 9.62146L20.7549 8.13554ZM14.6988 20.5834V10.4557C14.6731 10.4557 14.6453 10.4513 14.6154 10.4426C14.5855 10.4339 14.5577 10.4296 14.532 10.4296L9.36121 8.96974V18.9802C9.36121 19.0062 9.3719 19.0323 9.39328 19.0584C9.41467 19.0844 9.43391 19.1018 9.45102 19.1105L14.6988 20.5834ZM20.8576 18.9802V8.96974L15.5456 10.4296H15.52V20.5443L20.7549 19.1105C20.772 19.1018 20.7934 19.0844 20.8191 19.0584C20.8447 19.0323 20.8576 19.0062 20.8576 18.9802ZM16.7774 12.8801C16.6918 12.8801 16.6106 12.854 16.5336 12.8019C16.4566 12.7497 16.4053 12.6759 16.3796 12.5803C16.354 12.4673 16.3689 12.3609 16.4245 12.2609C16.4801 12.161 16.5593 12.0937 16.6619 12.0589L19.536 11.2377C19.6472 11.2117 19.752 11.2269 19.8503 11.2834C19.9487 11.3398 20.015 11.4246 20.0492 11.5375C20.0749 11.6418 20.0599 11.7439 20.0043 11.8438C19.9487 11.9438 19.8696 12.0111 19.7669 12.0459L16.8929 12.867C16.8757 12.8757 16.8565 12.8801 16.8351 12.8801H16.7774ZM16.7774 15.3827C16.6918 15.3827 16.6106 15.3566 16.5336 15.3045C16.4566 15.2523 16.4053 15.1785 16.3796 15.0829C16.354 14.9699 16.3689 14.8635 16.4245 14.7635C16.4801 14.6636 16.5593 14.5963 16.6619 14.5615L19.536 13.7403C19.6472 13.7143 19.752 13.7295 19.8503 13.786C19.9487 13.8424 20.015 13.9272 20.0492 14.0401C20.0749 14.1444 20.0599 14.2465 20.0043 14.3464C19.9487 14.4464 19.8696 14.5137 19.7669 14.5485L16.8929 15.3696C16.8757 15.3783 16.8565 15.3827 16.8351 15.3827H16.7774ZM16.7774 17.8853C16.6918 17.8853 16.6106 17.8592 16.5336 17.8071C16.4566 17.7549 16.4053 17.6811 16.3796 17.5855C16.354 17.4725 16.3689 17.3661 16.4245 17.2661C16.4801 17.1662 16.5593 17.0989 16.6619 17.0641L19.536 16.2429C19.6472 16.2169 19.752 16.2321 19.8503 16.2886C19.9487 16.345 20.015 16.4298 20.0492 16.5427C20.0749 16.647 20.0599 16.7491 20.0043 16.849C19.9487 16.949 19.8696 17.0163 19.7669 17.0511L16.8929 17.8722C16.8757 17.8809 16.8565 17.8853 16.8351 17.8853H16.7774ZM13.6082 12.0589C13.7108 12.0937 13.79 12.161 13.8456 12.2609C13.9012 12.3609 13.9161 12.4673 13.8905 12.5803C13.8648 12.6759 13.8135 12.7497 13.7365 12.8019C13.6595 12.854 13.5782 12.8801 13.4927 12.8801H13.435C13.4136 12.8801 13.3943 12.8757 13.3772 12.867L10.5031 12.0459C10.4005 12.0111 10.3214 11.9438 10.2658 11.8438C10.2102 11.7439 10.1952 11.6418 10.2209 11.5375C10.2551 11.4246 10.3214 11.3398 10.4197 11.2834C10.5181 11.2269 10.6229 11.2117 10.7341 11.2377L13.6082 12.0589ZM13.6082 14.5615C13.7108 14.5963 13.79 14.6636 13.8456 14.7635C13.9012 14.8635 13.9161 14.9699 13.8905 15.0829C13.8648 15.1785 13.8135 15.2523 13.7365 15.3045C13.6595 15.3566 13.5782 15.3827 13.4927 15.3827H13.435C13.4136 15.3827 13.3943 15.3783 13.3772 15.3696L10.5031 14.5485C10.4005 14.5137 10.3214 14.4464 10.2658 14.3464C10.2102 14.2465 10.1952 14.1444 10.2209 14.0401C10.2551 13.9272 10.3214 13.8424 10.4197 13.786C10.5181 13.7295 10.6229 13.7143 10.7341 13.7403L13.6082 14.5615ZM13.6082 17.0641C13.7108 17.0989 13.79 17.1662 13.8456 17.2661C13.9012 17.3661 13.9161 17.4725 13.8905 17.5855C13.8648 17.6811 13.8135 17.7549 13.7365 17.8071C13.6595 17.8592 13.5782 17.8853 13.4927 17.8853C13.4756 17.8853 13.4564 17.8853 13.435 17.8853C13.4136 17.8853 13.3943 17.8809 13.3772 17.8722L10.5031 17.0511C10.4005 17.0163 10.3214 16.949 10.2658 16.849C10.2102 16.7491 10.1952 16.647 10.2209 16.5427C10.2551 16.4298 10.3214 16.345 10.4197 16.2886C10.5181 16.2321 10.6229 16.2169 10.7341 16.2429L13.6082 17.0641Z" fill="white"/>
</svg>
