<svg width="250" height="212" viewBox="0 0 250 212" fill="none" xmlns="http://www.w3.org/2000/svg">
<path d="M167.037 16.4164H86.7744V110.066H167.037V16.4164Z" fill="#FBFBFB"/>
<path fill-rule="evenodd" clip-rule="evenodd" d="M86.7749 24.914L158.666 110.76H86.7749V24.914Z" fill="#F0F0F0"/>
<path d="M168.442 15.0106H85.3671V111.472H168.442V15.0106Z" stroke="#D9D9D9" stroke-width="2.88" stroke-linecap="round" stroke-linejoin="round"/>
<path d="M105.56 36.4617H130.171" stroke="#D9D9D9" stroke-width="2.88" stroke-linecap="round"/>
<path d="M140.25 36.4617H149.589" stroke="#D9D9D9" stroke-width="2.88" stroke-linecap="round"/>
<path d="M105.56 52.0699H149.575" stroke="#D9D9D9" stroke-width="2.88" stroke-linecap="round"/>
<path d="M107.754 67.6781H149.575" stroke="#D9D9D9" stroke-width="2.88" stroke-linecap="round"/>
<path d="M109.694 83.2868H149.574" stroke="#D9D9D9" stroke-width="2.88" stroke-linecap="round"/>
<path fill-rule="evenodd" clip-rule="evenodd" d="M35.7691 67.028H94.0242L100.497 125.559H29.2963L35.7691 67.028Z" fill="#FBFBFB"/>
<path d="M49.3612 77.209C49.7204 56.5477 54.9124 46.217 64.9371 46.217C74.9618 46.217 80.1538 56.5477 80.513 77.209" stroke="#D9D9D9" stroke-width="2.88" stroke-linecap="round"/>
<path fill-rule="evenodd" clip-rule="evenodd" d="M29.8589 80.4751L75.085 130.486C76.1267 131.638 76.0374 133.417 74.8855 134.458C74.3685 134.926 73.6964 135.185 72.9994 135.185H26.03C22.1474 135.185 19 132.037 19 128.155C19 127.849 19.0199 127.544 19.0595 127.242L24.985 81.9961C25.1866 80.4562 26.5985 79.3714 28.1383 79.573C28.8008 79.6598 29.4107 79.9796 29.8589 80.4751Z" fill="#F0F0F0"/>
<path fill-rule="evenodd" clip-rule="evenodd" d="M34.5094 65.6222H95.2827L102.067 126.965H27.7257L34.5094 65.6222Z" stroke="#D9D9D9" stroke-width="2.88" stroke-linecap="round" stroke-linejoin="round"/>
<path d="M148.798 15L168.704 35.9265" stroke="#D9D9D9" stroke-width="2.88"/>
<path fill-rule="evenodd" clip-rule="evenodd" d="M144.745 80.5053L184.052 97.3162V144.669L144.745 126.457V80.5053Z" fill="#FBFBFB" stroke="#D9D9D9" stroke-width="2.88" stroke-linecap="round" stroke-linejoin="round"/>
<path fill-rule="evenodd" clip-rule="evenodd" d="M219.08 76.2093L183.583 97.4466V145L217.688 123.752L219.08 76.2093Z" fill="#F0F0F0" stroke="#D9D9D9" stroke-width="2.88" stroke-linecap="round" stroke-linejoin="round"/>
<path fill-rule="evenodd" clip-rule="evenodd" d="M181.427 64.9444L142.523 80.6312L181.427 97.6664V64.9444Z" fill="#F0F0F0" stroke="#D9D9D9" stroke-width="2.88" stroke-linecap="round" stroke-linejoin="round"/>
<path fill-rule="evenodd" clip-rule="evenodd" d="M180.992 65.0962L222.497 78.5002L180.992 97.7166V65.0962Z" fill="#FBFBFB" stroke="#D9D9D9" stroke-width="2.88" stroke-linecap="round" stroke-linejoin="round"/>
<path fill-rule="evenodd" clip-rule="evenodd" d="M144.955 79.5798L132.358 96.8224L169.621 114.277L184.128 97.4848L144.955 79.5798Z" fill="#FBFBFB" stroke="#D9D9D9" stroke-width="2.88" stroke-linecap="round" stroke-linejoin="round"/>
<path fill-rule="evenodd" clip-rule="evenodd" d="M220.562 77.9745L231.386 94.4214L196.975 114.371L183.302 97.538L220.562 77.9745Z" fill="#FBFBFB" stroke="#D9D9D9" stroke-width="2.88" stroke-linecap="round" stroke-linejoin="round"/>
<path d="M191.506 44.7343L191.917 53.9228" stroke="#D9D9D9" stroke-width="2.88" stroke-linecap="round"/>
<path d="M208.301 45.8013L203.394 55.4539" stroke="#D9D9D9" stroke-width="2.88" stroke-linecap="round"/>
<path d="M220.281 56.7892L212.043 60.7161" stroke="#D9D9D9" stroke-width="2.88" stroke-linecap="round"/>
<path d="M36.376 179.712H25.64V193.616H26.808V192.544H35.224V193.584H36.376V179.712ZM26.808 191.424V188.416H35.224V191.424H26.808ZM26.808 187.36V184.544H35.224V187.36H26.808ZM26.808 183.488V180.832H35.224V183.488H26.808ZM49.816 178.896C49.448 179.6 49.032 180.288 48.552 180.928H45.416C45.08 180.176 44.728 179.504 44.344 178.928L43.192 179.12C43.576 179.664 43.912 180.256 44.232 180.928H40.104V182.048H53.88V180.928H49.832C50.232 180.448 50.6 179.888 50.936 179.28L49.816 178.896ZM42.104 187.248H45.672V189.136H42.072C42.088 188.88 42.104 188.624 42.104 188.352V187.248ZM45.672 186.224H42.104V184.384H45.672V186.224ZM41.976 190.16H45.672V191.792C45.672 192.272 45.432 192.512 44.984 192.512C44.568 192.512 44.104 192.48 43.608 192.448L43.88 193.472H45.32C46.248 193.472 46.728 193.024 46.728 192.16V183.344H41.032V188.432C41.016 190.256 40.648 191.744 39.912 192.928L40.744 193.68C41.352 192.72 41.768 191.552 41.976 190.16ZM51.624 193.472C52.552 193.472 53.016 192.992 53.016 192.064V182.896H51.896V191.776C51.896 192.24 51.672 192.48 51.24 192.48C50.632 192.48 49.976 192.448 49.304 192.4L49.544 193.472H51.624ZM48.568 184.064V191.008H49.656V184.064H48.568ZM56.84 179.2L56.024 179.984C57.176 180.768 58.072 181.52 58.728 182.224L59.544 181.408C58.808 180.672 57.912 179.936 56.84 179.2ZM56.488 182.96L55.672 183.76C56.776 184.576 57.64 185.344 58.28 186.064L59.112 185.248C58.392 184.48 57.512 183.728 56.488 182.96ZM58.424 187.328C57.688 189.248 56.824 191.104 55.832 192.928L56.984 193.424C57.912 191.648 58.728 189.76 59.464 187.744L58.424 187.328ZM62.936 178.848C62.376 181.136 61.288 182.944 59.672 184.288L60.408 185.216C61.56 184.256 62.488 183.024 63.192 181.52H67.608C67.608 182.512 67.56 183.168 67.464 183.488C67.368 183.808 67.064 183.968 66.568 183.984C66.024 183.984 65.368 183.952 64.584 183.904L64.92 184.944C65.592 184.976 66.184 185.008 66.696 185.008C67.592 184.976 68.168 184.688 68.392 184.144C68.584 183.6 68.712 182.352 68.76 180.416H63.64C63.8 179.984 63.928 179.52 64.056 179.04L62.936 178.848ZM60.44 185.888V186.992H61.464C61.944 188.336 62.856 189.536 64.184 190.608C62.808 191.44 61.112 192.128 59.096 192.64L59.736 193.616C61.912 193.04 63.72 192.288 65.176 191.328C66.424 192.16 67.976 192.896 69.832 193.536L70.456 192.528C68.728 192 67.256 191.376 66.072 190.672C67.352 189.648 68.28 188.4 68.84 186.944V185.888H60.44ZM62.552 186.992H67.672C67.096 188.144 66.232 189.152 65.064 190.016C63.848 189.12 63 188.112 62.552 186.992ZM76.584 187.44H82.952V189.136H76.568C76.568 189.04 76.584 188.96 76.584 188.864V187.44ZM82.952 186.432H76.584V184.688H82.952V186.432ZM76.488 190.144H82.952V191.856C82.952 192.304 82.728 192.544 82.312 192.544C81.816 192.544 81.272 192.528 80.696 192.496L80.968 193.536H82.648C83.576 193.536 84.056 193.104 84.056 192.24V183.68H76.6C76.984 183.072 77.336 182.448 77.656 181.808H86.088V180.704H78.136C78.36 180.144 78.568 179.568 78.744 178.96L77.576 178.832C77.384 179.456 77.144 180.08 76.872 180.704H72.104V181.808H76.344C75.24 183.888 73.688 185.712 71.688 187.312L72.424 188.272C73.592 187.328 74.616 186.304 75.512 185.2V188.928C75.48 190.528 74.984 191.824 74.024 192.848L74.872 193.616C75.72 192.688 76.264 191.52 76.488 190.144ZM97.4 178.768V188.576H98.568V179.84H102.52V178.768H97.4ZM105.704 183.744H109.496V185.952H105.704V183.744ZM109.496 182.704H105.704V180.608H109.496V182.704ZM104.44 193.12C106.536 192.608 108.392 192 109.992 191.328C110.28 191.84 110.536 192.352 110.76 192.848L111.64 192.208C111.112 191.056 110.344 189.696 109.336 188.144L108.456 188.704C108.808 189.248 109.144 189.808 109.464 190.368C108.36 190.8 107.112 191.216 105.704 191.632V187.024H110.584V179.568H104.568V191.408C104.568 191.696 104.392 191.904 104.04 192.016L104.44 193.12ZM116.248 191.392C117.208 191.392 117.688 190.896 117.688 189.904V179.568H112.472V193.552H113.624V180.656H116.536V189.648C116.536 190.08 116.312 190.304 115.864 190.304L114.504 190.272L114.808 191.392H116.248ZM120.424 179.408V184.416H123.432V186.544H119.768V187.6H120.936C120.728 189.856 120.312 191.648 119.672 192.976L120.568 193.6C121.272 192.256 121.736 190.256 121.992 187.6H123.432V193.552H124.536V178.992H123.432V183.36H121.528V179.408H120.424ZM127.288 188.672L126.424 189.216C127.224 190.08 127.864 190.88 128.328 191.584L129.24 190.96C128.792 190.304 128.136 189.536 127.288 188.672ZM127.608 181.76C128.456 182.192 129.272 182.688 130.072 183.264L130.696 182.56C130.024 182.112 129.256 181.664 128.408 181.248L128.536 181.152H132.648C131.544 183.28 129.192 184.752 125.608 185.552L126.12 186.496C130.2 185.408 132.776 183.6 133.832 181.072V180.208H129.608C129.944 179.84 130.232 179.456 130.456 179.056L129.336 178.912C128.632 180.032 127.272 180.992 125.256 181.76L125.912 182.608C126.52 182.336 127.096 182.048 127.608 181.76ZM125.272 187.024V188.112H131.336V191.84C131.336 192.288 131.112 192.528 130.664 192.528C130.024 192.528 129.368 192.496 128.664 192.448L128.904 193.552H131.064C131.976 193.552 132.44 193.072 132.44 192.128V188.112H134.312V187.024H132.44V185.008H131.336V187.024H125.272ZM125.752 184.448C126.808 184.224 127.784 183.952 128.68 183.648L128.456 182.912C127.496 183.216 126.504 183.456 125.48 183.648L125.752 184.448ZM144.04 190.928C142.952 191.168 141.848 191.392 140.712 191.584V188.752H143.592V187.632H140.712V185.776H139.56V187.632H136.44V188.752H139.56V191.776C138.344 191.968 137.096 192.128 135.816 192.272L136.072 193.376C138.92 193.024 141.576 192.576 144.04 192.064V190.928ZM136.024 179.632V180.72H138.648C137.736 182.56 136.952 183.76 136.296 184.336C136.184 184.384 136.024 184.416 135.832 184.448L136.104 185.488C138.504 185.248 140.728 184.944 142.744 184.592C143 185.024 143.224 185.44 143.432 185.856L144.392 185.184C143.816 184.112 143 182.848 141.928 181.408L141.048 181.984C141.48 182.576 141.88 183.152 142.232 183.728C140.792 183.984 139.288 184.176 137.704 184.336C138.376 183.52 139.096 182.32 139.864 180.72H143.976V179.632H136.024ZM148.2 193.456C149.16 193.456 149.656 192.96 149.656 191.984V178.976H148.488V191.696C148.488 192.16 148.248 192.4 147.8 192.4C147.096 192.4 146.36 192.368 145.592 192.336L145.848 193.456H148.2ZM145.288 180.416V190.32H146.408V180.416H145.288ZM154.808 185.712C155.48 186.112 156.152 186.624 156.824 187.264L157.432 186.304C156.792 185.744 156.088 185.248 155.32 184.816C155.656 184.128 155.928 183.376 156.152 182.544L155.08 182.352C154.6 184.256 153.656 185.76 152.28 186.88L153 187.76C153.704 187.184 154.296 186.512 154.808 185.712ZM162.808 185.6C163.576 186.08 164.344 186.704 165.096 187.456L165.736 186.48C165 185.808 164.2 185.2 163.32 184.688C163.624 184.048 163.88 183.344 164.072 182.576L162.984 182.384C162.568 184.08 161.784 185.424 160.632 186.416L161.336 187.312C161.896 186.832 162.392 186.256 162.808 185.6ZM158.408 186.304C156.84 188.576 154.632 190.432 151.768 191.872L152.36 192.896C154.856 191.584 156.872 189.952 158.408 187.968V193.552H159.592V187.92C161.288 190 163.32 191.648 165.688 192.848L166.312 191.776C163.528 190.448 161.288 188.592 159.592 186.224V181.776H165.48V180.672H159.592V178.976H158.408V180.672H152.536V181.776H158.408V186.304ZM171.432 183.904V192.64H167.48V193.712H172.6V183.904H171.432ZM189.464 181.696H186.888C187.208 180.896 187.448 180.016 187.64 179.072L186.488 178.912C186.344 179.872 186.12 180.8 185.8 181.696H184.312V193.072H185.432V191.696H188.344V192.608H189.464V181.696ZM185.432 190.624V187.12H188.344V190.624H185.432ZM185.432 186.08V182.784H188.344V186.08H185.432ZM192.248 185.408L191.32 185.984C192.424 187.296 193.304 188.48 193.96 189.536L194.872 188.896C194.264 187.904 193.4 186.736 192.248 185.408ZM197.736 181.712H192.632C192.92 180.88 193.144 179.984 193.336 179.04L192.2 178.896C191.784 181.168 191.032 183.088 189.912 184.656L190.6 185.568C191.224 184.752 191.752 183.84 192.2 182.832H196.6C196.568 187.44 196.504 190.208 196.408 191.104C196.28 191.92 195.848 192.336 195.096 192.336C194.6 192.336 194.024 192.32 193.352 192.288L193.624 193.344C194.392 193.376 194.936 193.408 195.256 193.408C196.6 193.408 197.336 192.784 197.496 191.568C197.656 190.32 197.736 187.024 197.736 181.712ZM206.872 181.952V190.464H213.528V181.952H210.312C210.488 181.52 210.632 181.072 210.728 180.624H214.136V179.584H206.248V180.624H209.592C209.496 181.072 209.368 181.52 209.192 181.952H206.872ZM212.44 189.52H207.96V187.856H212.44V189.52ZM207.96 186.944V185.36H212.44V186.944H207.96ZM207.96 184.448V182.912H212.44V184.448H207.96ZM208.824 190.64C208.008 191.44 207 192.16 205.8 192.768L206.456 193.584C207.688 192.928 208.728 192.16 209.576 191.296L208.824 190.64ZM211.624 190.624L210.936 191.296C212.088 192.064 213 192.8 213.656 193.488L214.392 192.752C213.64 192.048 212.712 191.328 211.624 190.624ZM201.208 181.6L200.36 182.128C201.24 182.96 201.992 183.76 202.616 184.496H199.624V185.568H202.008V191.984C202.008 192.368 201.832 192.56 201.512 192.56C201.08 192.56 200.632 192.528 200.152 192.48L200.392 193.52H201.896C202.696 193.52 203.112 193.088 203.112 192.256V185.568H204.856C204.664 186.432 204.424 187.184 204.136 187.808L205.048 188.144C205.384 187.44 205.672 186.464 205.928 185.2V184.496H203.864C203.64 184.208 203.4 183.904 203.112 183.584C203.912 182.704 204.664 181.664 205.336 180.464V179.584H200.152V180.608H204.152C203.64 181.44 203.08 182.192 202.456 182.864C202.088 182.464 201.672 182.048 201.208 181.6ZM224.28 185.2L223.4 185.76C224.504 187.088 225.384 188.304 226.04 189.408L226.936 188.752C226.312 187.744 225.432 186.56 224.28 185.2ZM224.2 178.928C223.72 181.152 222.808 183.024 221.464 184.56L222.184 185.472C222.888 184.672 223.496 183.776 224.008 182.784H228.6C228.568 187.376 228.504 190.128 228.408 191.024C228.28 191.904 227.8 192.352 226.984 192.352C226.504 192.352 225.928 192.336 225.272 192.304L225.544 193.344C226.296 193.376 226.824 193.408 227.144 193.408C228.552 193.408 229.336 192.752 229.496 191.472C229.656 190.224 229.736 186.96 229.736 181.664H224.52C224.84 180.848 225.096 179.984 225.304 179.072L224.2 178.928ZM216.616 189.552C216.52 190.928 216.28 192.144 215.912 193.2L216.904 193.504C217.256 192.384 217.48 191.104 217.576 189.664L216.616 189.552ZM219.512 189.44L218.568 189.648C218.76 190.656 218.936 191.808 219.064 193.12L220.088 192.88C219.912 191.648 219.72 190.496 219.512 189.44ZM221 185.248L220.072 185.536C220.28 186.048 220.472 186.592 220.648 187.152C219.656 187.392 218.664 187.584 217.672 187.744C218.792 186.608 220.216 184.608 221.944 181.76L220.936 181.376C220.52 182.096 220.104 182.768 219.72 183.392C218.92 183.52 218.104 183.632 217.304 183.712C218.184 182.624 219.048 181.168 219.912 179.344L218.856 178.928C218.152 180.592 217.336 182.08 216.408 183.376C216.264 183.568 216.104 183.712 215.944 183.792L216.216 184.784C217.16 184.672 218.104 184.544 219.064 184.416C218.072 185.888 217.24 186.928 216.552 187.552C216.408 187.68 216.248 187.776 216.056 187.856L216.344 188.864C217.784 188.704 219.32 188.432 220.936 188.048C221 188.288 221.08 188.544 221.144 188.832L222.12 188.576C221.8 187.328 221.416 186.208 221 185.248ZM221.352 189.136L220.488 189.408C220.808 190.24 221.112 191.2 221.384 192.288L222.296 191.888C222.024 190.896 221.704 189.984 221.352 189.136Z" fill="black" fill-opacity="0.2"/>
</svg>
