<svg width="22" height="24" viewBox="0 0 22 24" fill="none" xmlns="http://www.w3.org/2000/svg">
<path d="M20.8055 10.0415H20V10H11V14H16.6515C15.827 16.3285 13.6115 18 11 18C7.6865 18 5 15.3135 5 12C5 8.6865 7.6865 6 11 6C12.5295 6 13.921 6.577 14.9805 7.5195L17.809 4.691C16.023 3.0265 13.634 2 11 2C5.4775 2 1 6.4775 1 12C1 17.5225 5.4775 22 11 22C16.5225 22 21 17.5225 21 12C21 11.3295 20.931 10.675 20.8055 10.0415Z" fill="#FFC107"/>
<path d="M2.15374 7.3455L5.43924 9.755C6.32824 7.554 8.48124 6 11.0007 6C12.5302 6 13.9217 6.577 14.9812 7.5195L17.8097 4.691C16.0237 3.0265 13.6347 2 11.0007 2C7.15974 2 3.82874 4.1685 2.15374 7.3455Z" fill="#FF3D00"/>
<path d="M11.0004 22C13.5834 22 15.9304 21.0115 17.7049 19.404L14.6099 16.785C13.5722 17.5742 12.3042 18.001 11.0004 18C8.39944 18 6.19094 16.3415 5.35894 14.027L2.09794 16.5395C3.75294 19.778 7.11394 22 11.0004 22Z" fill="#4CAF50"/>
<path d="M20.8055 10.0415H20V9.99997H11V14H16.6515C16.2571 15.1082 15.5467 16.0766 14.608 16.7855L14.6095 16.7845L17.7045 19.4035C17.4855 19.6025 21 17 21 12C21 11.3295 20.931 10.675 20.8055 10.0415Z" fill="#1976D2"/>
</svg>
