<svg width="22" height="24" viewBox="0 0 22 24" fill="none" xmlns="http://www.w3.org/2000/svg">
<path d="M6.98359 9.89256C6.77402 9.89155 6.56809 9.94725 6.38761 10.0538C6.20712 10.1603 6.05881 10.3136 5.9584 10.4976C5.68413 10.9852 5.55253 11.5401 5.57864 12.0989C5.55014 12.6566 5.68192 13.2107 5.9584 13.6959C6.05839 13.8723 6.20305 14.0192 6.37783 14.122C6.55261 14.2247 6.75136 14.2797 6.9541 14.2813C7.15684 14.2829 7.35643 14.2311 7.53282 14.1311C7.70921 14.0312 7.85618 13.8865 7.95897 13.7118C8.23244 13.2289 8.36149 12.6776 8.33078 12.1234C8.3621 11.5519 8.23732 10.9826 7.9698 10.4766C7.8742 10.2987 7.73181 10.1502 7.55801 10.0473C7.3842 9.94436 7.18558 9.89086 6.98359 9.89256V9.89256Z" fill="#0072C6"/>
<path d="M13.5135 6.28627V10.2405L14.8968 11.1105C14.9468 11.1214 14.9985 11.1214 15.0484 11.1105L20.996 7.10065C20.9917 6.90604 20.9205 6.71886 20.7944 6.57056C20.6683 6.42226 20.495 6.32187 20.3037 6.28627H13.5135Z" fill="#0072C6"/>
<path d="M13.5128 11.7155L14.774 12.5819C14.8331 12.6178 14.9009 12.6369 14.9701 12.6369C15.0392 12.6369 15.107 12.6178 15.1661 12.5819C14.9495 12.7126 20.9945 8.69913 20.9945 8.69913V15.9665C21.0103 16.1137 20.9937 16.2627 20.9459 16.4028C20.8981 16.543 20.8202 16.671 20.7177 16.778C20.6153 16.8849 20.4907 16.9682 20.3527 17.0219C20.2147 17.0757 20.0666 17.0986 19.9188 17.0891H13.512V11.7155H13.5128Z" fill="#0072C6"/>
<path d="M1 4.27781V19.7474L12.7681 22.2151V2L1 4.27781ZM8.87523 14.628C8.65509 14.9383 8.36238 15.1901 8.02261 15.3613C7.68284 15.5326 7.30634 15.6182 6.92592 15.6106C6.55508 15.6171 6.18813 15.5341 5.85629 15.3684C5.52444 15.2027 5.23752 14.9594 5.01992 14.659C4.50385 13.9385 4.24569 13.0651 4.28712 12.1798C4.24322 11.251 4.50605 10.3337 5.03508 9.56912C5.258 9.25285 5.55531 8.99628 5.90079 8.82202C6.24628 8.64777 6.62932 8.56119 7.01616 8.56991C7.38432 8.56253 7.74866 8.64562 8.07721 8.81191C8.40575 8.9782 8.68845 9.22259 8.9005 9.52363C9.41142 10.2598 9.66519 11.1439 9.62247 12.039C9.66748 12.961 9.40461 13.8717 8.87523 14.628Z" fill="#0072C6"/>
</svg>
