<svg width="30" height="30" viewBox="0 0 30 30" fill="none" xmlns="http://www.w3.org/2000/svg">
<rect width="30" height="30" fill="white"/>
<path d="M15 30C23.2843 30 30 23.2843 30 15C30 6.71573 23.2843 0 15 0C6.71573 0 0 6.71573 0 15C0 23.2843 6.71573 30 15 30Z" fill="#FF9100"/>
<path fill-rule="evenodd" clip-rule="evenodd" d="M14.7814 9.32282L13.2564 12.4407L12.9826 12.9924L8.91591 13.5826L11.8617 16.4824L11.7704 17.0598L11.1709 20.5241L14.7814 18.6251L18.3919 20.5241L17.7923 17.0598L17.7011 16.4824L20.6469 13.5826L16.5671 12.9924L14.7814 9.32282ZM14.7814 8.54015C14.9726 8.54015 15.1464 8.58719 15.3028 8.68128C15.4592 8.77538 15.5765 8.90368 15.6547 9.06621L17.1667 12.1584L20.6469 12.6588C20.8207 12.6845 20.9771 12.7529 21.1161 12.8641C21.2552 12.9753 21.3551 13.1164 21.4159 13.2875C21.468 13.45 21.4746 13.6147 21.4355 13.7815C21.3964 13.9483 21.3116 14.0959 21.1813 14.2242L18.6396 16.7262L19.2261 20.2033C19.2609 20.3744 19.2413 20.5412 19.1675 20.7037C19.0936 20.8662 18.9828 20.9988 18.8351 21.1014C18.7482 21.1613 18.657 21.2041 18.5614 21.2298C18.4658 21.2554 18.3702 21.2682 18.2746 21.2682C18.1964 21.2682 18.1182 21.2597 18.04 21.2426C17.9618 21.2255 17.8836 21.1955 17.8054 21.1528L14.7814 19.5489L11.7444 21.1528C11.6749 21.1955 11.601 21.2255 11.5228 21.2426C11.4446 21.2597 11.3664 21.2682 11.2882 21.2682C11.1839 21.2682 11.0861 21.2554 10.9949 21.2298C10.9037 21.2041 10.8146 21.1613 10.7277 21.1014C10.58 20.9988 10.4692 20.8662 10.3953 20.7037C10.3215 20.5412 10.3019 20.3744 10.3367 20.2033L10.9232 16.7262L8.3815 14.2242C8.25115 14.0959 8.16643 13.9483 8.12733 13.7815C8.08822 13.6147 8.09474 13.45 8.14688 13.2875C8.20771 13.125 8.30764 12.986 8.44667 12.8705C8.58571 12.755 8.74212 12.6845 8.91591 12.6588L12.3961 12.1584L13.9081 9.06621C13.9863 8.90368 14.1036 8.77538 14.26 8.68128C14.4164 8.58719 14.5902 8.54015 14.7814 8.54015Z" fill="white"/>
</svg>
