<svg width="22" height="24" viewBox="0 0 22 24" fill="none" xmlns="http://www.w3.org/2000/svg">
<path d="M9.48635 6.86875L6.91027 13.2603L4.36556 6.86875H0L4.80906 17.9906L3.05639 22H7.3356L13.7388 6.86875H9.48635ZM14.2759 12.9308C13.7526 12.9308 13.2411 13.0832 12.8061 13.3688C12.371 13.6544 12.0319 14.0603 11.8317 14.5353C11.6314 15.0102 11.579 15.5328 11.6811 16.037C11.7832 16.5411 12.0352 17.0043 12.4052 17.3678C12.7751 17.7312 13.2465 17.9788 13.7597 18.0791C14.2729 18.1794 14.8049 18.1279 15.2883 17.9312C15.7717 17.7345 16.1849 17.4013 16.4756 16.9739C16.7663 16.5465 16.9215 16.044 16.9215 15.5299C16.9215 15.1886 16.853 14.8506 16.7201 14.5353C16.5871 14.2199 16.3923 13.9334 16.1466 13.6921C15.9009 13.4507 15.6093 13.2593 15.2883 13.1286C14.9673 12.998 14.6233 12.9308 14.2759 12.9308ZM17.255 2L13.029 11.9763H17.7908L22 2H17.255Z" fill="#5F01D1"/>
</svg>
