<svg width="30" height="30" viewBox="0 0 30 30" fill="none" xmlns="http://www.w3.org/2000/svg">
<circle cx="15" cy="15" r="15" fill="#FF0000"/>
<path d="M23.6417 10.6391C23.5399 10.2561 23.3394 9.90662 23.0601 9.62555C22.7808 9.34448 22.4326 9.14168 22.0503 9.03747C20.6431 8.65906 15.0181 8.65906 15.0181 8.65906C15.0181 8.65906 9.39307 8.65906 7.98579 9.03747C7.60351 9.14168 7.25531 9.34448 6.97603 9.62555C6.69675 9.90662 6.4962 10.2561 6.39443 10.6391C6.01807 12.0525 6.01807 15 6.01807 15C6.01807 15 6.01807 17.9475 6.39443 19.3609C6.4962 19.7438 6.69675 20.0933 6.97603 20.3744C7.25531 20.6555 7.60351 20.8582 7.98579 20.9625C9.39307 21.3409 15.0181 21.3409 15.0181 21.3409C15.0181 21.3409 20.6431 21.3409 22.0503 20.9625C22.4326 20.8582 22.7808 20.6555 23.0601 20.3744C23.3394 20.0933 23.5399 19.7438 23.6417 19.3609C24.0181 17.9475 24.0181 15 24.0181 15C24.0181 15 24.0181 12.0525 23.6417 10.6391Z" fill="white"/>
<path d="M13.1768 17.6764V12.3235L17.8813 15L13.1768 17.6764Z" fill="#FF0000"/>
</svg>
