<svg width="20" height="20" viewBox="0 0 20 20" fill="none" xmlns="http://www.w3.org/2000/svg">
<path d="M10 3C11.4615 3 12.8141 3.36538 14.0577 4.09615C15.2628 4.78846 16.2115 5.73718 16.9038 6.94231C17.6346 8.1859 18 9.53846 18 11C18 12.4615 17.6346 13.8141 16.9038 15.0577C16.1987 16.2756 15.2372 17.2372 14.0192 17.9423L13.1923 16.5577C14.1795 15.9808 14.9615 15.2051 15.5385 14.2308C16.1282 13.2308 16.4231 12.1538 16.4231 11C16.4231 9.84615 16.1282 8.76923 15.5385 7.76923C14.9744 6.80769 14.2051 6.04487 13.2308 5.48077C12.2436 4.90385 11.1667 4.61538 10 4.61538C8.83333 4.61538 7.75641 4.90385 6.76923 5.48077C5.79487 6.04487 5.02564 6.80769 4.46154 7.76923C3.87179 8.76923 3.57692 9.85256 3.57692 11.0192C3.57692 12.1731 3.87179 13.2436 4.46154 14.2308C5.02564 15.2051 5.79487 15.9808 6.76923 16.5577L5.98077 17.9423C4.76282 17.2372 3.80128 16.2756 3.09615 15.0577C2.36538 13.8141 2 12.4615 2 11C2 9.53846 2.36538 8.1859 3.09615 6.94231C3.80128 5.73718 4.75641 4.78846 5.96154 4.09615C7.20513 3.36538 8.55128 3 10 3ZM14.8077 11C14.8077 11.8718 14.5897 12.6795 14.1538 13.4231C13.7179 14.1667 13.1346 14.75 12.4038 15.1731L11.6154 13.7692C12.1026 13.4872 12.4872 13.1026 12.7692 12.6154C13.0513 12.1282 13.1923 11.5962 13.1923 11.0192C13.1923 10.4295 13.0449 9.89103 12.75 9.40385C12.4679 8.91667 12.0833 8.53205 11.5962 8.25C11.109 7.95513 10.5769 7.80769 10 7.80769C9.42308 7.80769 8.89103 7.95513 8.40385 8.25C7.91667 8.53205 7.52564 8.91667 7.23077 9.40385C6.94872 9.89103 6.80769 10.4295 6.80769 11.0192C6.80769 11.5962 6.94872 12.1282 7.23077 12.6154C7.51282 13.1026 7.89744 13.4872 8.38462 13.7692L7.59615 15.1731C6.86538 14.75 6.28205 14.1667 5.84615 13.4231C5.41026 12.6795 5.19231 11.8718 5.19231 11C5.19231 10.1282 5.40385 9.32692 5.82692 8.59615C6.26282 7.85256 6.84615 7.26923 7.57692 6.84615C8.32051 6.41026 9.12821 6.19231 10 6.19231C10.8718 6.19231 11.6731 6.41026 12.4038 6.84615C13.1474 7.26923 13.7308 7.85256 14.1538 8.59615C14.5897 9.32692 14.8077 10.1282 14.8077 11ZM10 9.42308C10.4359 9.42308 10.8141 9.57692 11.1346 9.88461C11.4551 10.1923 11.6154 10.5641 11.6154 11C11.6154 11.4359 11.4551 11.8141 11.1346 12.1346C10.8141 12.4551 10.4359 12.6154 10 12.6154C9.5641 12.6154 9.1859 12.4551 8.86538 12.1346C8.54487 11.8141 8.38462 11.4359 8.38462 11C8.38462 10.5641 8.54487 10.1923 8.86538 9.88461C9.1859 9.57692 9.5641 9.42308 10 9.42308Z" fill="black"/>
</svg>
