<svg width="20" height="20" viewBox="0 0 20 20" fill="none" xmlns="http://www.w3.org/2000/svg">
<path d="M10 5.58182C12.7564 5.58182 15.2145 7.13091 16.4145 9.58182C15.9855 10.4691 15.3818 11.2327 14.6618 11.8509L15.6873 12.8764C16.6982 11.9818 17.4982 10.8618 18 9.58182C16.7418 6.38909 13.6364 4.12727 10 4.12727C9.07636 4.12727 8.18909 4.27273 7.35273 4.54182L8.55273 5.74182C9.02545 5.64727 9.50545 5.58182 10 5.58182ZM9.22182 6.41091L10.7273 7.91636C11.1418 8.09818 11.4764 8.43273 11.6582 8.84727L13.1636 10.3527C13.2218 10.1055 13.2655 9.84364 13.2655 9.57455C13.2727 7.77091 11.8036 6.30909 10 6.30909C9.73091 6.30909 9.47636 6.34545 9.22182 6.41091ZM2.73455 4.03273L4.68364 5.98182C3.49818 6.91273 2.56 8.14909 2 9.58182C3.25818 12.7745 6.36364 15.0364 10 15.0364C11.1055 15.0364 12.1673 14.8255 13.1418 14.44L15.6291 16.9273L16.6545 15.9018L3.76 3L2.73455 4.03273ZM8.18909 9.48727L10.0873 11.3855C10.0582 11.3927 10.0291 11.4 10 11.4C8.99636 11.4 8.18182 10.5855 8.18182 9.58182C8.18182 9.54546 8.18909 9.52364 8.18909 9.48727V9.48727ZM5.71636 7.01455L6.98909 8.28727C6.82182 8.68727 6.72727 9.12364 6.72727 9.58182C6.72727 11.3855 8.19636 12.8545 10 12.8545C10.4582 12.8545 10.8945 12.76 11.2873 12.5927L12 13.3055C11.36 13.48 10.6909 13.5818 10 13.5818C7.24364 13.5818 4.78545 12.0327 3.58545 9.58182C4.09455 8.54182 4.83636 7.68364 5.71636 7.01455Z" fill="black"/>
</svg>
