<svg width="20" height="20" viewBox="0 0 20 20" fill="none" xmlns="http://www.w3.org/2000/svg">
<path d="M5.58333 6.75H1V4.91667H5.58333V6.75ZM5.58333 9.5H1V11.3333H5.58333V9.5ZM18.0408 15.9167L14.53 12.4058C13.7967 12.8825 12.935 13.1667 12 13.1667C9.47 13.1667 7.41667 11.1133 7.41667 8.58333C7.41667 6.05333 9.47 4 12 4C14.53 4 16.5833 6.05333 16.5833 8.58333C16.5833 9.51833 16.2992 10.38 15.8225 11.1042L19.3333 14.6242L18.0408 15.9167ZM14.75 8.58333C14.75 7.07083 13.5125 5.83333 12 5.83333C10.4875 5.83333 9.25 7.07083 9.25 8.58333C9.25 10.0958 10.4875 11.3333 12 11.3333C13.5125 11.3333 14.75 10.0958 14.75 8.58333ZM1 15.9167H10.1667V14.0833H1V15.9167Z" fill="black"/>
</svg>
