<svg width="20" height="20" viewBox="0 0 20 20" fill="none" xmlns="http://www.w3.org/2000/svg">
<path d="M9.5 5.16667H11.1667V6.83333H9.5V5.16667ZM9.5 8.5H11.1667V13.5H9.5V8.5ZM10.3333 1C5.73333 1 2 4.73333 2 9.33333C2 13.9333 5.73333 17.6667 10.3333 17.6667C14.9333 17.6667 18.6667 13.9333 18.6667 9.33333C18.6667 4.73333 14.9333 1 10.3333 1ZM10.3333 16C6.65833 16 3.66667 13.0083 3.66667 9.33333C3.66667 5.65833 6.65833 2.66667 10.3333 2.66667C14.0083 2.66667 17 5.65833 17 9.33333C17 13.0083 14.0083 16 10.3333 16Z" fill="black"/>
</svg>
