<svg width="20" height="20" viewBox="0 0 20 20" fill="none" xmlns="http://www.w3.org/2000/svg">
<path d="M10.4727 8.90909C9.87636 7.21455 8.26182 6 6.36364 6C3.95636 6 2 7.95636 2 10.3636C2 12.7709 3.95636 14.7273 6.36364 14.7273C8.26182 14.7273 9.87636 13.5127 10.4727 11.8182H13.6364V14.7273H16.5455V11.8182H18V8.90909H10.4727ZM6.36364 11.8182C5.56364 11.8182 4.90909 11.1636 4.90909 10.3636C4.90909 9.56364 5.56364 8.90909 6.36364 8.90909C7.16364 8.90909 7.81818 9.56364 7.81818 10.3636C7.81818 11.1636 7.16364 11.8182 6.36364 11.8182Z" fill="black"/>
</svg>
