<svg width="20" height="20" viewBox="0 0 20 20" fill="none" xmlns="http://www.w3.org/2000/svg">
<path d="M9.99999 2.33334C5.58999 2.33334 1.99999 5.26534 1.99999 8.86867C1.99999 12.096 4.84666 14.8 8.68999 15.314C8.95066 15.3693 9.30533 15.4873 9.39533 15.71C9.47533 15.912 9.44799 16.224 9.42066 16.4347L9.31133 17.1187C9.28133 17.3207 9.15133 17.914 10.0107 17.5513C10.8713 17.19 14.6213 14.8153 16.3013 12.872C17.4507 11.6053 18 10.3073 18 8.86867C18 5.26534 14.41 2.33334 9.99999 2.33334ZM6.86866 11.0113H5.27799C5.04799 11.0113 4.85799 10.82 4.85799 10.5893V7.38867C4.85799 7.15734 5.04799 6.966 5.27799 6.966C5.50999 6.966 5.69799 7.15734 5.69799 7.38867V10.1667H6.86866C7.10066 10.1667 7.28799 10.3567 7.28799 10.5893C7.28799 10.82 7.09999 11.0113 6.86866 11.0113V11.0113ZM8.51266 10.5893C8.51266 10.82 8.32466 11.0113 8.09199 11.0113C7.86199 11.0113 7.67399 10.82 7.67399 10.5893V7.38867C7.67399 7.15734 7.86199 6.966 8.09399 6.966C8.32466 6.966 8.51266 7.15734 8.51266 7.38867V10.5893ZM12.34 10.5893C12.34 10.7707 12.224 10.9313 12.052 10.9893C12.0093 11.0033 11.9633 11.01 11.9193 11.01C11.7787 11.01 11.6587 10.9493 11.5793 10.842L9.95066 8.61667V10.5887C9.95066 10.8193 9.76466 11.0107 9.52999 11.0107C9.29933 11.0107 9.11266 10.8193 9.11266 10.5887V7.38867C9.11266 7.20734 9.22799 7.04667 9.39933 6.98934C9.43933 6.974 9.48999 6.96734 9.52866 6.96734C9.65866 6.96734 9.77866 7.03734 9.85866 7.138L11.5 9.372V7.38867C11.5 7.15734 11.688 6.966 11.92 6.966C12.15 6.966 12.34 7.15734 12.34 7.38867V10.5893ZM14.91 8.566C15.1427 8.566 15.33 8.75734 15.33 8.98934C15.33 9.22067 15.1427 9.412 14.91 9.412H13.74V10.1667H14.91C15.1427 10.1667 15.33 10.3567 15.33 10.5893C15.33 10.82 15.1427 11.0113 14.91 11.0113H13.3193C13.0893 11.0113 12.9013 10.82 12.9013 10.5893V7.38867C12.9013 7.15734 13.0893 6.966 13.3213 6.966H14.912C15.1427 6.966 15.33 7.15734 15.33 7.38867C15.33 7.62267 15.1427 7.81134 14.91 7.81134H13.74V8.566H14.91Z" fill="black"/>
</svg>
