<svg width="20" height="20" viewBox="0 0 20 20" fill="none" xmlns="http://www.w3.org/2000/svg">
<path d="M10 5.45455C12.7564 5.45455 15.2145 7.00364 16.4145 9.45455C15.2145 11.9055 12.7564 13.4545 10 13.4545C7.24364 13.4545 4.78545 11.9055 3.58545 9.45455C4.78545 7.00364 7.24364 5.45455 10 5.45455ZM10 4C6.36364 4 3.25818 6.26182 2 9.45455C3.25818 12.6473 6.36364 14.9091 10 14.9091C13.6364 14.9091 16.7418 12.6473 18 9.45455C16.7418 6.26182 13.6364 4 10 4ZM10 7.63636C11.0036 7.63636 11.8182 8.45091 11.8182 9.45455C11.8182 10.4582 11.0036 11.2727 10 11.2727C8.99636 11.2727 8.18182 10.4582 8.18182 9.45455C8.18182 8.45091 8.99636 7.63636 10 7.63636ZM10 6.18182C8.19636 6.18182 6.72727 7.65091 6.72727 9.45455C6.72727 11.2582 8.19636 12.7273 10 12.7273C11.8036 12.7273 13.2727 11.2582 13.2727 9.45455C13.2727 7.65091 11.8036 6.18182 10 6.18182Z" fill="black"/>
</svg>
