<svg width="20" height="20" viewBox="0 0 20 20" fill="none" xmlns="http://www.w3.org/2000/svg">
<path d="M14.5 13.72C14.9267 13.72 15.3267 13.8333 15.7 14.06C16.0733 14.2733 16.3667 14.5667 16.58 14.94C16.8067 15.3133 16.92 15.7133 16.92 16.14C16.92 16.5667 16.8067 16.9667 16.58 17.34C16.3667 17.7267 16.0733 18.0333 15.7 18.26C15.3267 18.4867 14.9267 18.6 14.5 18.6C14.0733 18.6 13.6733 18.4867 13.3 18.26C12.9267 18.0333 12.6267 17.7267 12.4 17.34C12.1867 16.9667 12.08 16.5667 12.08 16.14C12.08 15.8733 12.0933 15.6933 12.12 15.6L6.22 12.16C5.74 12.6 5.16667 12.82 4.5 12.82C4.06 12.82 3.64667 12.7067 3.26 12.48C2.87333 12.2533 2.56667 11.9467 2.34 11.56C2.11333 11.1733 2 10.76 2 10.32C2 9.88 2.11333 9.46667 2.34 9.08C2.56667 8.69333 2.87333 8.38667 3.26 8.16C3.64667 7.93333 4.06 7.82 4.5 7.82C5.16667 7.82 5.74 8.04 6.22 8.48L12.08 5.08C12.0267 4.81333 12 4.62 12 4.5C12 4.06 12.1133 3.64667 12.34 3.26C12.5667 2.87333 12.8733 2.56667 13.26 2.34C13.6467 2.11333 14.06 2 14.5 2C14.94 2 15.3533 2.11333 15.74 2.34C16.1267 2.56667 16.4333 2.87333 16.66 3.26C16.8867 3.64667 17 4.06 17 4.5C17 4.94 16.8867 5.35333 16.66 5.74C16.4333 6.12667 16.1267 6.43333 15.74 6.66C15.3533 6.88667 14.94 7 14.5 7C13.8867 7 13.3133 6.76667 12.78 6.3L6.92 9.74C6.97333 9.98 7 10.1667 7 10.3C7 10.4333 6.97333 10.6333 6.92 10.9L12.86 14.34C13.34 13.9267 13.8867 13.72 14.5 13.72Z" fill="black"/>
</svg>
