<svg width="20" height="20" viewBox="0 0 20 20" fill="none" xmlns="http://www.w3.org/2000/svg">
<path d="M16.3333 5.16667H14.6667C14.6667 2.86667 12.8 1 10.5 1C8.2 1 6.33333 2.86667 6.33333 5.16667H4.66667C3.75 5.16667 3 5.91667 3 6.83333V16.8333C3 17.75 3.75 18.5 4.66667 18.5H16.3333C17.25 18.5 18 17.75 18 16.8333V6.83333C18 5.91667 17.25 5.16667 16.3333 5.16667ZM10.5 2.66667C11.8833 2.66667 13 3.78333 13 5.16667H8C8 3.78333 9.11667 2.66667 10.5 2.66667ZM16.3333 16.8333H4.66667V6.83333H16.3333V16.8333ZM10.5 10.1667C9.11667 10.1667 8 9.05 8 7.66667H6.33333C6.33333 9.96667 8.2 11.8333 10.5 11.8333C12.8 11.8333 14.6667 9.96667 14.6667 7.66667H13C13 9.05 11.8833 10.1667 10.5 10.1667Z" fill="black"/>
</svg>
