<svg width="20" height="20" viewBox="0 0 20 20" fill="none" xmlns="http://www.w3.org/2000/svg">
<path d="M14.656 15V7.688H5.344V15H14.656ZM12.656 3H14V4.344H14.656C15.0187 4.344 15.3333 4.47733 15.6 4.744C15.8667 5.01067 16 5.32533 16 5.688V15C16 15.3627 15.8667 15.6773 15.6 15.944C15.3333 16.2107 15.0187 16.344 14.656 16.344H5.344C4.97067 16.344 4.65067 16.2107 4.384 15.944C4.128 15.6773 4 15.3627 4 15V5.688C4 5.32533 4.128 5.01067 4.384 4.744C4.65067 4.47733 4.97067 4.344 5.344 4.344H6V3H7.344V4.344H12.656V3ZM13.344 10.344V13.688H10V10.344H13.344Z" fill="black"/>
</svg>
