<svg width="20" height="20" viewBox="0 0 20 20" fill="none" xmlns="http://www.w3.org/2000/svg">
<path fill-rule="evenodd" clip-rule="evenodd" d="M3 14.9286C3 13.2186 6.42643 12.3571 8.14286 12.3571C9.85929 12.3571 13.2857 13.2186 13.2857 14.9286V16.2143H3V14.9286ZM12.0514 7.24643L13.1314 6.16C14.43 7.57429 14.43 9.535 13.1314 10.8336L12.0514 9.74714C12.5914 8.98857 12.5914 8.005 12.0514 7.24643ZM14.2114 5.04786L15.2593 4C17.7729 6.60357 17.7664 10.4993 15.2593 13L14.2114 11.9521C15.9921 9.90786 15.9921 6.98928 14.2114 5.04786ZM10.7144 8.50014C10.7144 9.9203 9.56312 11.0716 8.14296 11.0716C6.7228 11.0716 5.57153 9.9203 5.57153 8.50014C5.57153 7.07998 6.7228 5.92871 8.14296 5.92871C9.56312 5.92871 10.7144 7.07998 10.7144 8.50014Z" fill="black"/>
</svg>
