<svg width="20" height="20" viewBox="0 0 20 20" fill="none" xmlns="http://www.w3.org/2000/svg">
<path d="M5.21778 8.92444C6.49778 11.44 8.56 13.4933 11.0756 14.7822L13.0311 12.8267C13.2711 12.5867 13.6267 12.5067 13.9378 12.6133C14.9333 12.9422 16.0089 13.12 17.1111 13.12C17.6 13.12 18 13.52 18 14.0089V17.1111C18 17.6 17.6 18 17.1111 18C8.76444 18 2 11.2356 2 2.88889C2 2.4 2.4 2 2.88889 2H6C6.48889 2 6.88889 2.4 6.88889 2.88889C6.88889 4 7.06667 5.06667 7.39556 6.06222C7.49333 6.37333 7.42222 6.72 7.17333 6.96889L5.21778 8.92444Z" fill="black"/>
</svg>
